<svg xmlns="http://www.w3.org/2000/svg" fill="none" aria-hidden="true" class="bqfGyf" viewBox="0 0 238 134"><path fill="#1E8E3E" d="m116.595 13.9408-14.941-8.31722c.001.04715 1.13 2.53677 1.13 2.53677l-1.88.45226.659 1.48769-3.2479.8608 14.9179 8.3449c1.875-1.2067 3.165-3.2297 3.362-5.3652Z" class="P5VoX"/><path fill="#5F6368" d="M98.8805 5.79916c.4157 1.19112-.3644 2.46551-1.6017 2.65497L95.2839 5.9474c-.2031-.26314-.0047-.61406.3324-.56794l3.2642.4197Z"/><path stroke="#5F6368" stroke-linecap="round" stroke-linejoin="round" stroke-width="1.5" d="m101.789 5.96962-6.3024-.32232 3.4404 5.4475"/><path fill="#DADCE0" d="m107 103.3 76 .657V88.5222c0-30.6725-22.932-55.5652-51.217-55.5652l-23.924 9.1295L107 103.3Z"/><path fill="#DADCE0" d="M97 102.957h23v-8.9992h-13.813C101.098 93.893 97 97.9718 97 102.957ZM177.995 92.0402c.46-.8807 1.481-1.0317 2.373-.7189 10.031 3.34 20.541-.3102 30.068-2.857 4.735-1.2907 10.049-2.7696 14.751-.2065 4.307 2.3222 6.728 6.5911 7.176 11.0493.439 4.2199-.331 9.4059-4.969 11.2979-3.934 1.625-8.135.143-12.234-.115-2.095-.117-3.955.141-5.574 1.398-1.495 1.179-2.707 2.53-4.571 3.174-3.886 1.421-7.351-1.393-10.324-3.365-.733-.448-1.465-.895-2.266-1.23-.633-.232-1.3-.407-2.083-.265-1.02.151-1.91.847-2.753 1.339-1.184.671-2.537 1.239-3.965 1.297-1.484.023-2.896-.453-3.837-1.571-.808-.958-1.261-2.242-1.58-3.367-.803-2.738-1.13-5.495-.981-8.2708-.009-.2382.129-.4638.232-.6331.083-1.6543.606-3.2713 1.525-4.6473-.057-.0345-.147-.0125-.204-.0469-.858-.3692-1.142-1.5502-.784-2.2617ZM100.597 31.2005l-.505-3.4946 5.267-1.0558c.462-1.8513 1.181-5.0367 2.039-6.6897.594-1.124 1.255-2.1819 2.047-3.1075-1.321-4.0994-2.113-6.96842-1.783-11.33221.132-1.19013.462-2.51249 1.783-2.84308 1.188-.33059 2.336.08146 3.195.74264 1.782 1.4546 2.813 2.25865 4.332 3.97772 1.255 1.4546 2.377 2.97533 3.433 4.62823 2.84-.3967 5.679-.595 8.584-.6611 1.057 0 2.047 0 3.103.1983.595-3.63648 1.387-5.80422 3.368-8.97788.66-1.05789 1.518-2.04967 2.905-1.71907 1.189.26447 2.113 1.81116 2.113 1.81116.941 1.12636 1.783 3.53024 2.377 5.71213.66 2.51246.99 5.15726 1.122 7.80196 0 .1983 0 .3306-.066.4628 4.028 2.777 7.065 5.9506 8.782 7.273.726.5951 8.782 6.149-3.037 6.6779 4.425.5951 18.977 11.3698-2.482 7.7333.265.9918 11.924 10.6475-9.139 10.0525-1.321-.0661-35.193 6.0167-43.3144-13.9509l3.7636-.529c1.3206-.1983 2.2448-1.3885 2.1128-2.7108Z"/><path fill="#5F6368" d="m100.093 27.7061.505 3.4284c.198 1.3224-.7926 2.5786-2.1131 2.777l-3.6587.8332c-.8584-2.1158-1.4023-3.1377-1.6004-5.8485l6.8672-1.1901Z"/><path stroke="#5F6368" stroke-linecap="round" stroke-linejoin="round" stroke-miterlimit="10" stroke-width="2" d="M117.954 72.957c.096 7.1469.048 14.2281-.193 21.375-7.481.947-8.52 5.871-8.761 8.625M118.04 99.4629c-1.86.3416-3.352 2.7161-3.535 3.6241M104 98.957c-1.916.662-3 3.13-3 4"/><path fill="#5F6368" d="M121.145 27.8622c-.564.0436-1.057-.3792-1.1-.9444-.044-.5652.378-1.0588.942-1.1024.564-.0437 1.057.3791 1.101.9443.044.5652-.378 1.0588-.943 1.1025ZM109.598 26.6512c-.565.0437-1.057-.3792-1.101-.9444-.044-.5652.378-1.0587.942-1.1024.565-.0436 1.057.3792 1.101.9444.044.5652-.378 1.0588-.942 1.1024Z"/><path stroke="#5F6368" stroke-linecap="round" stroke-width="2" d="M141.516 38.3389c1.527.7039 5.029 1.9246 6.812 1.1765M135.566 39.291c.585.9004 2.515 2.8546 5.565 3.4684"/><path fill="#5F6368" d="M41 102h29V88H41c4.1938 4.1674 4.1938 9.8326 0 14Z"/><path fill="#DADCE0" d="M13.2949 88H39c-4.6737-4.0372-4.7671-9.7674-.1869-13.8047L39 74H13.2949c-4.39321 4.1674-4.39321 9.7674 0 14Z"/><path stroke="#DADCE0" stroke-linecap="round" stroke-width="2" d="M32 81h47M32 87h47"/><path stroke="#5F6368" stroke-linecap="round" stroke-width="2" d="M1 95h62M1 101h62"/><path stroke="#DADCE0" stroke-linecap="round" stroke-width="2" d="M32 75h47"/><path stroke="#5F6368" stroke-linecap="round" stroke-width="2" d="M1 89h62"/><path fill="#CEEAD6" d="M7.28938 67.951c-1.87625 0-3.40071 0-3.40071-3.4008V24.8558c0-1.8763 1.52446-3.4007 3.40071-3.4007H69.0352c1.8762 0 3.4007 1.5244 3.4007 3.4007L7.28938 67.951Z" class="rTGbBf"/><path stroke="#5F6368" stroke-miterlimit="10" stroke-width="2" d="M4.07143 68.1345H68.3043c1.9349 0 3.518-1.583 3.518-3.5179v-39.46c0-1.9348-1.5831-3.5179-3.518-3.5179H7.5894c-1.93488 0-3.51797 1.5831-3.51797 3.5179v42.9779Z"/><path fill="#5F6368" d="M92.7904 68.2686H3v6.1395h89.7904c1.6954 0 3.0698-1.3744 3.0698-3.0698 0-1.6954-1.3744-3.0697-3.0698-3.0697Z"/><path stroke="#5F6368" stroke-linecap="round" stroke-width="2" d="m112 7.95703 2 5.99997M137 6.95703l1 5.99997"/><path fill="#5F6368" d="M118.487 39.8768c-.741 7.7564-2.453 22.2233-2.453 22.2233l-19.8906-1.833c2.0793-6.7272 3.9586-12.4063 6.2256-20.3903h16.118Z"/><path fill="#fff" stroke="#5F6368" stroke-linecap="round" stroke-linejoin="round" stroke-width="2" d="M115.955 41.1963c-.815 3.2109-2.33 8.5646-3.721 13.3811-.792 2.7438-1.541 5.3041-2.092 7.1787-.269.9144-.491 1.6656-.647 2.1951l-17.6-3.35c.8015-2.0359 1.594-3.9994 2.3933-5.9795 1.6682-4.1329 3.3656-8.3381 5.235-13.4255l16.4317.0001Z"/><path fill="#DADCE0" d="M108.418 42.9432c-7.674.7675-10.5165-3.1906-10.5165-3.1906h19.7265s-1.535 2.4232-9.21 3.1906Z"/><path stroke="#5F6368" stroke-linecap="round" stroke-width="2" d="M119.279 33.8346c-1.168 1.4353-3.851 6.3782 1.831 10.0093"/><path fill="#DADCE0" d="M98 36.957h17v4l-17-.4v-3.6Z"/><path stroke="#5F6368" stroke-linecap="round" stroke-width="2" d="M99.1969 41.8728c3.6461 1.8748 12.4091 3.9904 18.2991-2.5461"/></svg>